[ConversionWorker] Logging FFmpeg output to: ffmpeg_logs\ffmpeg_conversion_高冷_03_wav_20250525_171952.log\n[ConversionWorker] Getting duration with command: ffprobe -v error -show_entries format=duration -of default=noprint_wrappers=1:nokey=1 Z:\Story\高冷\高冷 03.wav\n[ConversionWorker] Duration for 高冷 03.wav: 2702289 ms\n[ConversionWorker] Starting FFmpeg for 高冷 03.wav: ffmpeg -i Z:\Story\高冷\高冷 03.wav -b:a 256k -vn -y -loglevel error -stats -progress pipe:1 Z:\Story\高冷\高冷 03.mp3\n[ConversionWorker] FFmpeg process started. PID: 24712\n[STDOUT RAW] bitrate= 152.5kbits/s\n[STDOUT RAW] total_size=68204\n[STDOUT RAW] out_time_us=3577958\n[STDOUT RAW] out_time_ms=3577958\n[STDOUT RAW] out_time=00:00:03.577958\n[STDOUT RAW] dup_frames=0\n[STDOUT RAW] drop_frames=0\n[STDOUT RAW] speed=6.84x\n[STDOUT RAW] progress=continue\n[STDERR RAW] size=      67KiB time=00:00:03.57 bitrate= 152.5kbits/s speed=6.84x\n[STDOUT RAW] bitrate= 156.3kbits/s\n[STDOUT RAW] total_size=140684\n[STDOUT RAW] out_time_us=7201958\n[STDOUT RAW] out_time_ms=7201958\n[STDOUT RAW] out_time=00:00:07.201958\n[STDOUT RAW] dup_frames=0\n[STDOUT RAW] drop_frames=0\n[STDOUT RAW] speed=6.98x\n[STDOUT RAW] progress=continue\n[STDERR RAW] size=     137KiB time=00:00:07.20 bitrate= 156.3kbits/s speed=6.98x\n[STDOUT RAW] bitrate= 157.7kbits/s\n[STDOUT RAW] total_size=225644\n[STDOUT RAW] out_time_us=11449958\n[STDOUT RAW] out_time_ms=11449958\n[STDOUT RAW] out_time=00:00:11.449958\n[STDOUT RAW] dup_frames=0\n[STDOUT RAW] drop_frames=0\n[STDOUT RAW] speed=7.39x\n[STDOUT RAW] progress=continue\n[STDERR RAW] size=     220KiB time=00:00:11.44 bitrate= 157.7kbits/s speed=7.39x\n[STDOUT RAW] bitrate= 158.4kbits/s\n[STDOUT RAW] total_size=1048576\n[STDOUT RAW] out_time_us=52945958\n[STDOUT RAW] out_time_ms=52945958\n[STDOUT RAW] out_time=00:00:52.945958\n[STDOUT RAW] dup_frames=0\n[STDOUT RAW] drop_frames=0\n[STDOUT RAW] speed=25.6x\n[STDOUT RAW] progress=continue\n[STDERR RAW] size=    1024KiB time=00:00:52.94 bitrate= 158.4kbits/s speed=25.6x\n[STDOUT RAW] bitrate= 144.1kbits/s\n[STDOUT RAW] total_size=2359296\n[STDOUT RAW] out_time_us=131017958\n[STDOUT RAW] out_time_ms=131017958\n[STDOUT RAW] out_time=00:02:11.017958\n[STDOUT RAW] dup_frames=0\n[STDOUT RAW] drop_frames=0\n[STDOUT RAW] speed=50.8x\n[STDOUT RAW] progress=continue\n[STDERR RAW] size=    2304KiB time=00:02:11.01 bitrate= 144.1kbits/s speed=50.8x\n[STDOUT RAW] bitrate= 151.7kbits/s\n[STDOUT RAW] total_size=3932160\n[STDOUT RAW] out_time_us=207337958\n[STDOUT RAW] out_time_ms=207337958\n[STDOUT RAW] out_time=00:03:27.337958\n[STDOUT RAW] dup_frames=0\n[STDOUT RAW] drop_frames=0\n[STDOUT RAW] speed=67.1x\n[STDOUT RAW] progress=continue\n[STDERR RAW] size=    3840KiB time=00:03:27.33 bitrate= 151.7kbits/s speed=67.1x\n[STDOUT RAW] bitrate= 154.6kbits/s\n[STDOUT RAW] total_size=5505024\n[STDOUT RAW] out_time_us=284809958\n[STDOUT RAW] out_time_ms=284809958\n[STDOUT RAW] out_time=00:04:44.809958\n[STDOUT RAW] dup_frames=0\n[STDOUT RAW] drop_frames=0\n[STDOUT RAW] speed=78.7x\n[STDOUT RAW] progress=continue\n[STDERR RAW] size=    5376KiB time=00:04:44.80 bitrate= 154.6kbits/s speed=78.7x\n[STDOUT RAW] bitrate= 157.3kbits/s\n[STDOUT RAW] total_size=7077888\n[STDOUT RAW] out_time_us=360025958\n[STDOUT RAW] out_time_ms=360025958\n[STDOUT RAW] out_time=00:06:00.025958\n[STDOUT RAW] dup_frames=0\n[STDOUT RAW] drop_frames=0\n[STDOUT RAW] speed=87.2x\n[STDOUT RAW] progress=continue\n[STDERR RAW] size=    6912KiB time=00:06:00.02 bitrate= 157.3kbits/s speed=87.2x\n[STDOUT RAW] bitrate= 157.4kbits/s\n[STDOUT RAW] total_size=8650752\n[STDOUT RAW] out_time_us=439777958\n[STDOUT RAW] out_time_ms=439777958\n[STDOUT RAW] out_time=00:07:19.777958\n[STDOUT RAW] dup_frames=0\n[STDOUT RAW] drop_frames=0\n[STDOUT RAW] speed=94.8x\n[STDOUT RAW] progress=continue\n[STDERR RAW] size=    8448KiB time=00:07:19.77 bitrate= 157.4kbits/s speed=94.8x\n[STDOUT RAW] bitrate= 157.7kbits/s\n[STDOUT RAW] total_size=10223616\n[STDOUT RAW] out_time_us=518617958\n[STDOUT RAW] out_time_ms=518617958\n[STDOUT RAW] out_time=00:08:38.617958\n[STDOUT RAW] dup_frames=0\n[STDOUT RAW] drop_frames=0\n[STDOUT RAW] speed=100x\n[STDOUT RAW] progress=continue\n[STDERR RAW] size=    9984KiB time=00:08:38.61 bitrate= 157.7kbits/s speed=100x\n[STDOUT RAW] bitrate= 158.9kbits/s\n[STDOUT RAW] total_size=11796480\n[STDOUT RAW] out_time_us=594049958\n[STDOUT RAW] out_time_ms=594049958\n[STDOUT RAW] out_time=00:09:54.049958\n[STDOUT RAW] dup_frames=0\n[STDOUT RAW] drop_frames=0\n[STDOUT RAW] speed= 105x\n[STDOUT RAW] progress=continue\n[STDERR RAW] size=   11520KiB time=00:09:54.04 bitrate= 158.9kbits/s speed= 105x\n[STDOUT RAW] bitrate= 159.7kbits/s\n[STDOUT RAW] total_size=13369344\n[STDOUT RAW] out_time_us=669577958\n[STDOUT RAW] out_time_ms=669577958\n[STDOUT RAW] out_time=00:11:09.577958\n[STDOUT RAW] dup_frames=0\n[STDOUT RAW] drop_frames=0\n[STDOUT RAW] speed= 108x\n[STDOUT RAW] progress=continue\n[STDERR RAW] size=   13056KiB time=00:11:09.57 bitrate= 159.7kbits/s speed= 108x\n[STDOUT RAW] bitrate= 160.0kbits/s\n[STDOUT RAW] total_size=14942208\n[STDOUT RAW] out_time_us=747337958\n[STDOUT RAW] out_time_ms=747337958\n[STDOUT RAW] out_time=00:12:27.337958\n[STDOUT RAW] dup_frames=0\n[STDOUT RAW] drop_frames=0\n[STDOUT RAW] speed= 112x\n[STDOUT RAW] progress=continue\n[STDERR RAW] size=   14592KiB time=00:12:27.33 bitrate= 160.0kbits/s speed= 112x\n[STDOUT RAW] bitrate= 157.9kbits/s\n[STDOUT RAW] total_size=16252928\n[STDOUT RAW] out_time_us=823201958\n[STDOUT RAW] out_time_ms=823201958\n[STDOUT RAW] out_time=00:13:43.201958\n[STDOUT RAW] dup_frames=0\n[STDOUT RAW] drop_frames=0\n[STDOUT RAW] speed= 114x\n[STDOUT RAW] progress=continue\n[STDERR RAW] size=   15872KiB time=00:13:43.20 bitrate= 157.9kbits/s speed= 114x\n[STDOUT RAW] bitrate= 157.7kbits/s\n[STDOUT RAW] total_size=17825792\n[STDOUT RAW] out_time_us=904537958\n[STDOUT RAW] out_time_ms=904537958\n[STDOUT RAW] out_time=00:15:04.537958\n[STDOUT RAW] dup_frames=0\n[STDOUT RAW] drop_frames=0\n[STDOUT RAW] speed= 117x\n[STDOUT RAW] progress=continue\n[STDERR RAW] size=   17408KiB time=00:15:04.53 bitrate= 157.7kbits/s speed= 117x\n[STDOUT RAW] bitrate= 157.8kbits/s\n[STDOUT RAW] total_size=19398656\n[STDOUT RAW] out_time_us=983161958\n[STDOUT RAW] out_time_ms=983161958\n[STDOUT RAW] out_time=00:16:23.161958\n[STDOUT RAW] dup_frames=0\n[STDOUT RAW] drop_frames=0\n[STDOUT RAW] speed= 119x\n[STDOUT RAW] progress=continue\n[STDERR RAW] size=   18944KiB time=00:16:23.16 bitrate= 157.8kbits/s speed= 119x\n[STDOUT RAW] bitrate= 158.0kbits/s\n[STDOUT RAW] total_size=20971520\n[STDOUT RAW] out_time_us=1061809958\n[STDOUT RAW] out_time_ms=1061809958\n[STDOUT RAW] out_time=00:17:41.809958\n[STDOUT RAW] dup_frames=0\n[STDOUT RAW] drop_frames=0\n[STDOUT RAW] speed= 121x\n[STDOUT RAW] progress=continue\n[STDERR RAW] size=   20480KiB time=00:17:41.80 bitrate= 158.0kbits/s speed= 121x\n[STDOUT RAW] bitrate= 158.3kbits/s\n[STDOUT RAW] total_size=22544384\n[STDOUT RAW] out_time_us=1139353958\n[STDOUT RAW] out_time_ms=1139353958\n[STDOUT RAW] out_time=00:18:59.353958\n[STDOUT RAW] dup_frames=0\n[STDOUT RAW] drop_frames=0\n[STDOUT RAW] speed= 123x\n[STDOUT RAW] progress=continue\n[STDERR RAW] size=   22016KiB time=00:18:59.35 bitrate= 158.3kbits/s speed= 123x\n[STDOUT RAW] bitrate= 159.2kbits/s\n[STDOUT RAW] total_size=24117248\n[STDOUT RAW] out_time_us=1212097958\n[STDOUT RAW] out_time_ms=1212097958\n[STDOUT RAW] out_time=00:20:12.097958\n[STDOUT RAW] dup_frames=0\n[STDOUT RAW] drop_frames=0\n[STDOUT RAW] speed= 124x\n[STDOUT RAW] progress=continue\n[STDERR RAW] size=   23552KiB time=00:20:12.09 bitrate= 159.2kbits/s speed= 124x\n[STDOUT RAW] bitrate= 158.9kbits/s\n[STDOUT RAW] total_size=25690112\n[STDOUT RAW] out_time_us=1293337958\n[STDOUT RAW] out_time_ms=1293337958\n[STDOUT RAW] out_time=00:21:33.337958\n[STDOUT RAW] dup_frames=0\n[STDOUT RAW] drop_frames=0\n[STDOUT RAW] speed= 125x\n[STDOUT RAW] progress=continue\n[STDERR RAW] size=   25088KiB time=00:21:33.33 bitrate= 158.9kbits/s speed= 125x\n[STDOUT RAW] bitrate= 159.2kbits/s\n[STDOUT RAW] total_size=27262976\n[STDOUT RAW] out_time_us=1370377958\n[STDOUT RAW] out_time_ms=1370377958\n[STDOUT RAW] out_time=00:22:50.377958\n[STDOUT RAW] dup_frames=0\n[STDOUT RAW] drop_frames=0\n[STDOUT RAW] speed= 127x\n[STDOUT RAW] progress=continue\n[STDERR RAW] size=   26624KiB time=00:22:50.37 bitrate= 159.2kbits/s speed= 127x\n[STDOUT RAW] bitrate= 159.9kbits/s\n[STDOUT RAW] total_size=28835840\n[STDOUT RAW] out_time_us=1442809958\n[STDOUT RAW] out_time_ms=1442809958\n[STDOUT RAW] out_time=00:24:02.809958\n[STDOUT RAW] dup_frames=0\n[STDOUT RAW] drop_frames=0\n[STDOUT RAW] speed= 127x\n[STDOUT RAW] progress=continue\n[STDERR RAW] size=   28160KiB time=00:24:02.80 bitrate= 159.9kbits/s speed= 127x\n[STDOUT RAW] bitrate= 159.0kbits/s\n[STDOUT RAW] total_size=30146560\n[STDOUT RAW] out_time_us=1517089958\n[STDOUT RAW] out_time_ms=1517089958\n[STDOUT RAW] out_time=00:25:17.089958\n[STDOUT RAW] dup_frames=0\n[STDOUT RAW] drop_frames=0\n[STDOUT RAW] speed= 128x\n[STDOUT RAW] progress=continue\n[STDERR RAW] size=   29440KiB time=00:25:17.08 bitrate= 159.0kbits/s speed= 128x\n[STDOUT RAW] bitrate= 158.8kbits/s\n[STDOUT RAW] total_size=31719424\n[STDOUT RAW] out_time_us=1597993958\n[STDOUT RAW] out_time_ms=1597993958\n[STDOUT RAW] out_time=00:26:37.993958\n[STDOUT RAW] dup_frames=0\n[STDOUT RAW] drop_frames=0\n[STDOUT RAW] speed= 129x\n[STDOUT RAW] progress=continue\n[STDOUT RAW] bitrate= 159.1kbits/s\n[STDOUT RAW] total_size=33292288\n[STDERR RAW] size=   30976KiB time=00:26:37.99 bitrate= 158.8kbits/s speed= 129x\n[STDOUT RAW] out_time_us=1673665958\n[STDOUT RAW] out_time_ms=1673665958\n[STDOUT RAW] out_time=00:27:53.665958\n[STDOUT RAW] dup_frames=0\n[STDOUT RAW] drop_frames=0\n[STDOUT RAW] speed= 130x\n[STDOUT RAW] progress=continue\n[STDERR RAW] size=   32512KiB time=00:27:53.66 bitrate= 159.1kbits/s speed= 130x\n[STDOUT RAW] bitrate= 159.2kbits/s\n[STDOUT RAW] total_size=34865152\n[STDOUT RAW] out_time_us=1752193958\n[STDOUT RAW] out_time_ms=1752193958\n[STDOUT RAW] out_time=00:29:12.193958\n[STDOUT RAW] dup_frames=0\n[STDOUT RAW] drop_frames=0\n[STDOUT RAW] speed= 131x\n[STDOUT RAW] progress=continue\n[STDERR RAW] size=   34048KiB time=00:29:12.19 bitrate= 159.2kbits/s speed= 131x\n[STDOUT RAW] bitrate= 159.1kbits/s\n[STDOUT RAW] total_size=36438016\n[STDOUT RAW] out_time_us=1832113958\n[STDOUT RAW] out_time_ms=1832113958\n[STDOUT RAW] out_time=00:30:32.113958\n[STDOUT RAW] dup_frames=0\n[STDOUT RAW] drop_frames=0\n[STDOUT RAW] speed= 132x\n[STDOUT RAW] progress=continue\n[STDERR RAW] size=   35584KiB time=00:30:32.11 bitrate= 159.1kbits/s speed= 132x\n[STDOUT RAW] bitrate= 159.9kbits/s\n[STDOUT RAW] total_size=38273024\n[STDOUT RAW] out_time_us=1914457958\n[STDOUT RAW] out_time_ms=1914457958\n[STDOUT RAW] out_time=00:31:54.457958\n[STDOUT RAW] dup_frames=0\n[STDOUT RAW] drop_frames=0\n[STDOUT RAW] speed= 133x\n[STDOUT RAW] progress=continue\n[STDERR RAW] size=   37376KiB time=00:31:54.45 bitrate= 159.9kbits/s speed= 133x\n[STDOUT RAW] bitrate= 158.9kbits/s\n[STDOUT RAW] total_size=39583744\n[STDOUT RAW] out_time_us=1992433958\n[STDOUT RAW] out_time_ms=1992433958\n[STDOUT RAW] out_time=00:33:12.433958\n[STDOUT RAW] dup_frames=0\n[STDOUT RAW] drop_frames=0\n[STDOUT RAW] speed= 133x\n[STDOUT RAW] progress=continue\n[STDERR RAW] size=   38656KiB time=00:33:12.43 bitrate= 158.9kbits/s speed= 133x\n[STDOUT RAW] bitrate= 159.8kbits/s\n[STDOUT RAW] total_size=41418752\n[STDOUT RAW] out_time_us=2073673958\n[STDOUT RAW] out_time_ms=2073673958\n[STDOUT RAW] out_time=00:34:33.673958\n[STDOUT RAW] dup_frames=0\n[STDOUT RAW] drop_frames=0\n[STDOUT RAW] speed= 134x\n[STDOUT RAW] progress=continue\n[STDERR RAW] size=   40448KiB time=00:34:33.67 bitrate= 159.8kbits/s speed= 134x\n[STDOUT RAW] bitrate= 159.1kbits/s\n[STDOUT RAW] total_size=42729472\n[STDOUT RAW] out_time_us=2148193958\n[STDOUT RAW] out_time_ms=2148193958\n[STDOUT RAW] out_time=00:35:48.193958\n[STDOUT RAW] dup_frames=0\n[STDOUT RAW] drop_frames=0\n[STDOUT RAW] speed= 134x\n[STDOUT RAW] progress=continue\n[STDERR RAW] size=   41728KiB time=00:35:48.19 bitrate= 159.1kbits/s speed= 134x\n[STDOUT RAW] bitrate= 159.8kbits/s\n[STDOUT RAW] total_size=44302336\n[STDOUT RAW] out_time_us=2217361958\n[STDOUT RAW] out_time_ms=2217361958\n[STDOUT RAW] out_time=00:36:57.361958\n[STDOUT RAW] dup_frames=0\n[STDOUT RAW] drop_frames=0\n[STDOUT RAW] speed= 134x\n[STDOUT RAW] progress=continue\n[STDERR RAW] size=   43264KiB time=00:36:57.36 bitrate= 159.8kbits/s speed= 134x\n[STDOUT RAW] bitrate= 159.2kbits/s\n[STDOUT RAW] total_size=45613056\n[STDOUT RAW] out_time_us=2292025958\n[STDOUT RAW] out_time_ms=2292025958\n[STDOUT RAW] out_time=00:38:12.025958\n[STDOUT RAW] dup_frames=0\n[STDOUT RAW] drop_frames=0\n[STDOUT RAW] speed= 135x\n[STDOUT RAW] progress=continue\n[STDERR RAW] size=   44544KiB time=00:38:12.02 bitrate= 159.2kbits/s speed= 135x\n[STDOUT RAW] bitrate= 159.9kbits/s\n[STDOUT RAW] total_size=47185920\n[STDOUT RAW] out_time_us=2360329958\n[STDOUT RAW] out_time_ms=2360329958\n[STDOUT RAW] out_time=00:39:20.329958\n[STDOUT RAW] dup_frames=0\n[STDOUT RAW] drop_frames=0\n[STDOUT RAW] speed= 135x\n[STDOUT RAW] progress=continue\n[STDERR RAW] size=   46080KiB time=00:39:20.32 bitrate= 159.9kbits/s speed= 135x\n[STDOUT RAW] bitrate= 159.9kbits/s\n[STDOUT RAW] total_size=48496640\n[STDOUT RAW] out_time_us=2426353958\n[STDOUT RAW] out_time_ms=2426353958\n[STDOUT RAW] out_time=00:40:26.353958\n[STDOUT RAW] dup_frames=0\n[STDOUT RAW] drop_frames=0\n[STDOUT RAW] speed= 134x\n[STDOUT RAW] progress=continue\n[STDERR RAW] size=   47360KiB time=00:40:26.35 bitrate= 159.9kbits/s speed= 134x\n[STDOUT RAW] bitrate= 159.3kbits/s\n[STDOUT RAW] total_size=49807360\n[STDOUT RAW] out_time_us=2501737958\n[STDOUT RAW] out_time_ms=2501737958\n[STDOUT RAW] out_time=00:41:41.737958\n[STDOUT RAW] dup_frames=0\n[STDOUT RAW] drop_frames=0\n[STDOUT RAW] speed= 135x\n[STDOUT RAW] progress=continue\n[STDERR RAW] size=   48640KiB time=00:41:41.73 bitrate= 159.3kbits/s speed= 135x\n[STDOUT RAW] bitrate= 159.6kbits/s\n[STDOUT RAW] total_size=51380224\n[STDOUT RAW] out_time_us=2575657958\n[STDOUT RAW] out_time_ms=2575657958\n[STDOUT RAW] out_time=00:42:55.657958\n[STDOUT RAW] dup_frames=0\n[STDOUT RAW] drop_frames=0\n[STDOUT RAW] speed= 135x\n[STDOUT RAW] progress=continue\n[STDERR RAW] size=   50176KiB time=00:42:55.65 bitrate= 159.6kbits/s speed= 135x\n[STDOUT RAW] bitrate= 159.5kbits/s\n[STDOUT RAW] total_size=52690944\n[STDOUT RAW] out_time_us=2641993958\n[STDOUT RAW] out_time_ms=2641993958\n[STDOUT RAW] out_time=00:44:01.993958\n[STDOUT RAW] dup_frames=0\n[STDOUT RAW] drop_frames=0\n[STDOUT RAW] speed= 135x\n[STDOUT RAW] progress=continue\n[STDERR RAW] size=   51456KiB time=00:44:01.99 bitrate= 159.5kbits/s speed= 135x\n[STDOUT RAW] bitrate= 160.0kbits/s\n[STDERR RAW] size=   52781KiB time=00:45:02.28 bitrate= 160.0kbits/s speed= 135x\n[STDOUT RAW] total_size=54047564\n[STDOUT RAW] out_time_us=2702289333\n[STDOUT RAW] out_time_ms=2702289333\n[STDOUT RAW] out_time=00:45:02.289333\n[STDOUT RAW] dup_frames=0\n[STDOUT RAW] drop_frames=0\n[STDOUT RAW] speed= 135x\n[STDOUT RAW] progress=end\n[ConversionWorker] STDERR pipe closed signal received.\n[ConversionWorker] Detected 'progress=end' for 高冷 03.wav\n[ConversionWorker] STDOUT pipe closed signal received.\n[ConversionWorker] Process finished and both stream pipes closed. Exiting loop.\n[ConversionWorker] Waiting for reader threads to join...\n[ConversionWorker] FFmpeg process ended. Return code: 0\n[ConversionWorker] Closing FFmpeg log file.\n